# Blender v3.1.2 OBJ File: ''
# www.blender.org
mtllib gm_painting.mtl
o gm_painting
v 32.000000 -17.500000 -1.287816
v 31.875000 -17.875000 -1.287816
v 32.000000 17.500000 -1.287816
v 31.500000 -18.000000 -1.287816
v -31.500000 18.000000 -1.287814
v 31.875000 17.875000 -1.287816
v 31.500000 18.000000 -1.287816
v -32.000000 -17.500000 -1.287814
v -32.000000 17.500000 -1.287814
v -31.875000 17.875000 -1.287814
v -31.875000 -17.875000 -1.287814
v -31.500000 -18.000000 -1.287814
v -31.463049 -17.963049 0.683971
v -31.500000 -18.000000 0.462186
v 31.500000 -18.000000 0.462184
v -31.875000 -17.875000 0.462186
v -31.838049 -17.838049 0.683971
v -31.727194 -17.727194 0.849325
v -31.352194 -17.852194 0.849325
v 31.463049 -17.963049 0.683969
v 31.875000 -17.875000 0.462184
v -32.000000 17.500000 0.462186
v -31.875000 17.875000 0.462186
v -32.000000 -17.500000 0.462186
v -31.963049 -17.463049 0.683971
v -31.852194 -17.352194 0.849325
v -31.466223 -17.466223 1.091463
v -31.091223 -17.591223 1.091463
v -31.042971 -17.042971 1.287816
v -31.167971 -16.667971 1.287816
v -30.832029 -16.332029 1.287816
v -30.832029 16.332031 1.287816
v -30.408777 15.908779 1.091463
v -30.283777 16.283779 1.091463
v 32.000000 -17.500000 0.462184
v 31.838049 -17.838049 0.683969
v 31.352194 -17.852194 0.849323
v 31.091223 -17.591223 1.091461
v -30.667971 -17.167971 1.287816
v -30.707029 -16.707029 1.287816
v -30.408777 -15.908777 1.091463
v -30.059122 15.559124 0.767041
v -29.934122 15.934124 0.767041
v -29.908777 16.408779 1.091463
v 31.466223 -17.466223 1.091461
v -29.989780 15.510723 0.725900
v -29.900000 15.483772 0.712186
v -29.795942 15.795944 0.712186
v 29.483772 15.900002 0.712184
v -29.483772 15.900002 0.712186
v -29.510723 15.989780 0.725900
v -29.870016 15.870018 0.725900
v -30.059122 -15.559122 0.767041
v -29.483772 -15.900000 0.712186
v 29.900000 -15.483772 0.712184
v 29.795942 15.795944 0.712184
v 29.510723 15.989780 0.725898
v -29.559122 16.059124 0.767041
v 29.559122 16.059124 0.767039
v 29.870016 15.870018 0.725898
v 29.900000 15.483772 0.712184
v 29.989780 15.510723 0.725898
v 29.989780 -15.510723 0.725898
v 30.059122 15.559124 0.767039
v 30.059122 -15.559122 0.767039
v 30.408777 15.908779 1.091461
v 30.408777 -15.908777 1.091461
v 30.832029 16.332031 1.287814
v 30.832029 -16.332029 1.287814
v 31.167971 16.667969 1.287814
v 31.167971 -16.667971 1.287814
v 31.591223 17.091221 1.091461
v 29.934122 15.934124 0.767039
v 30.283777 16.283779 1.091461
v 29.908777 16.408779 1.091461
v -30.707029 16.707031 1.287816
v -30.332029 16.832031 1.287816
v 30.332029 16.832031 1.287814
v 30.707029 16.707031 1.287814
v 31.042971 17.042969 1.287814
v 31.466223 17.466221 1.091461
v 31.852194 17.352196 0.849323
v 31.852194 -17.352194 0.849323
v 31.963049 17.463047 0.683969
v 31.963049 -17.463049 0.683969
v 32.000000 17.500000 0.462184
v 31.727194 -17.727194 0.849323
v 31.727194 17.727196 0.849323
v -31.167971 16.667969 1.287816
v -31.042971 17.042969 1.287816
v -30.667971 17.167969 1.287816
v 30.667971 17.167969 1.287814
v 31.091223 17.591221 1.091461
v 31.352194 17.852196 0.849323
v 31.463049 17.963047 0.683969
v 31.838049 17.838047 0.683969
v -31.463049 17.963047 0.683971
v -31.591223 17.091221 1.091463
v -31.591223 -17.091223 1.091463
v -31.466223 17.466221 1.091463
v -31.091223 17.591221 1.091463
v -31.352194 17.852196 0.849325
v -31.838049 17.838047 0.683971
v -31.727194 17.727196 0.849325
v -31.963049 17.463047 0.683971
v -31.852194 17.352196 0.849325
v 31.875000 17.875000 0.462184
v 31.500000 18.000000 0.462184
v -31.500000 18.000000 0.462186
v 31.591223 -17.091223 1.091461
v 30.707029 -16.707029 1.287814
v 30.283777 -16.283777 1.091461
v 29.908777 -16.408777 1.091461
v 31.042971 -17.042971 1.287814
v 30.667971 -17.167971 1.287814
v -30.332029 -16.832029 1.287816
v -30.283777 -16.283777 1.091463
v -29.934122 -15.934122 0.767041
v -29.989780 -15.510723 0.725900
v 30.332029 -16.832029 1.287814
v -29.908777 -16.408777 1.091463
v -29.559122 -16.059122 0.767041
v -29.870016 -15.870016 0.725900
v -29.900000 -15.483772 0.712186
v -29.795942 -15.795943 0.712186
v -29.510723 -15.989780 0.725900
v 29.510723 -15.989780 0.725898
v 29.559122 -16.059122 0.767039
v 29.934122 -15.934122 0.767039
v 29.870016 -15.870016 0.725898
v 29.483772 -15.900000 0.712184
v 29.795942 -15.795943 0.712184
vt 0.008679 0.013375
vt 0.010071 0.009200
vt 0.008679 0.403065
vt 0.014246 0.007808
vt 0.715689 0.408633
vt 0.010071 0.407241
vt 0.014246 0.408632
vt 0.721256 0.013375
vt 0.721256 0.403066
vt 0.719864 0.407241
vt 0.719864 0.009200
vt 0.715689 0.007808
vt 0.038417 0.446574
vt 0.037886 0.445420
vt 0.963944 0.445420
vt 0.970089 0.422480
vt 0.031742 0.422480
vt 0.017051 0.430799
vt 0.008710 0.445450
vt 0.033427 0.447139
vt 0.033660 0.447365
vt 0.034858 0.448558
vt 0.039770 0.447572
vt 0.963414 0.446574
vt 0.968402 0.447139
vt 0.984777 0.430800
vt 0.031714 0.964123
vt 0.033428 0.968565
vt 0.017053 0.984907
vt 0.008711 0.970257
vt 0.031715 0.451582
vt 0.032874 0.452106
vt 0.033867 0.453455
vt 0.038787 0.452479
vt 0.043586 0.451040
vt 0.044690 0.458368
vt 0.043003 0.463428
vt 0.047193 0.468167
vt 0.047192 0.947535
vt 0.053238 0.941365
vt 0.055209 0.946839
vt 0.993116 0.445450
vt 0.970111 0.451583
vt 0.968170 0.447365
vt 0.962061 0.447571
vt 0.958244 0.451039
vt 0.049768 0.456692
vt 0.049091 0.462759
vt 0.053239 0.474338
vt 0.059422 0.936026
vt 0.060883 0.941181
vt 0.060707 0.948796
vt 0.993116 0.970256
vt 0.963039 0.452479
vt 0.060195 0.935395
vt 0.061173 0.935087
vt 0.062460 0.939613
vt 0.934830 0.940893
vt 0.067001 0.940893
vt 0.066694 0.941859
vt 0.061533 0.940536
vt 0.059424 0.479676
vt 0.067001 0.474807
vt 0.940655 0.480612
vt 0.939371 0.939613
vt 0.935137 0.941859
vt 0.066060 0.942627
vt 0.935771 0.942627
vt 0.940297 0.940536
vt 0.940657 0.935087
vt 0.941632 0.935394
vt 0.941630 0.480307
vt 0.942404 0.936026
vt 0.942402 0.479675
vt 0.948588 0.941364
vt 0.948587 0.474338
vt 0.954634 0.947535
vt 0.954633 0.468166
vt 0.958824 0.952273
vt 0.958823 0.463428
vt 0.964487 0.958438
vt 0.940946 0.941181
vt 0.946619 0.946839
vt 0.941123 0.948796
vt 0.049090 0.952940
vt 0.054518 0.954825
vt 0.947311 0.954826
vt 0.952737 0.952940
vt 0.957137 0.957330
vt 0.963040 0.963218
vt 0.967958 0.962245
vt 0.967957 0.453455
vt 0.968951 0.963596
vt 0.968950 0.452106
vt 0.970111 0.964122
vt 0.966970 0.448558
vt 0.966970 0.967141
vt 0.043002 0.952273
vt 0.044690 0.957330
vt 0.049768 0.959005
vt 0.952061 0.959006
vt 0.958244 0.964658
vt 0.962061 0.968126
vt 0.963414 0.969125
vt 0.968169 0.968336
vt 0.038418 0.969125
vt 0.037338 0.958438
vt 0.037339 0.457261
vt 0.038787 0.963218
vt 0.043585 0.964656
vt 0.039771 0.968126
vt 0.033661 0.968336
vt 0.034859 0.967141
vt 0.032873 0.963597
vt 0.033866 0.962245
vt 0.968402 0.968564
vt 0.963944 0.970282
vt 0.037887 0.970282
vt 0.964485 0.457261
vt 0.984776 0.984905
vt 0.970089 0.993224
vt 0.031743 0.993224
vt 0.952737 0.462759
vt 0.946619 0.468861
vt 0.941123 0.466901
vt 0.957137 0.458368
vt 0.952061 0.456690
vt 0.054518 0.460873
vt 0.055209 0.468861
vt 0.060883 0.474519
vt 0.060197 0.480307
vt 0.947311 0.460871
vt 0.060707 0.466902
vt 0.066060 0.473071
vt 0.061533 0.475164
vt 0.061174 0.480612
vt 0.062460 0.476086
vt 0.066694 0.473839
vt 0.935137 0.473838
vt 0.935771 0.473070
vt 0.940946 0.474518
vt 0.940297 0.475163
vt 0.934830 0.474807
vt 0.939371 0.476085
vn 0.0000 0.0000 -1.0000
vn -0.1539 -0.9008 0.4061
vn -0.1659 -0.9816 0.0943
vn 0.1659 -0.9816 0.0943
vn 0.1602 -0.9871 0.0000
vn -0.1602 -0.9871 0.0000
vn -0.7071 -0.7071 0.0000
vn -0.9871 -0.1602 0.0000
vn -0.7027 -0.7027 0.1118
vn -0.6327 -0.6327 0.4464
vn -0.4669 -0.4669 0.7510
vn -0.1092 -0.7140 0.6916
vn 0.1539 -0.9008 0.4061
vn 0.7027 -0.7027 0.1118
vn 0.7071 -0.7071 0.0000
vn -0.9816 0.1659 0.0943
vn -0.7027 0.7027 0.1118
vn -0.7071 0.7071 0.0000
vn -0.9871 0.1602 0.0000
vn -0.9816 -0.1659 0.0943
vn -0.9008 -0.1539 0.4061
vn -0.7140 -0.1092 0.6916
vn -0.3282 -0.3282 0.8858
vn -0.0720 -0.5183 0.8522
vn -0.1432 -0.1432 0.9793
vn -0.2189 -0.0201 0.9755
vn 0.1627 0.0353 0.9860
vn 0.1627 -0.0353 0.9860
vn 0.4920 -0.0782 0.8671
vn 0.2840 -0.2840 0.9158
vn 0.9871 -0.1602 0.0000
vn 0.9816 -0.1659 0.0943
vn 0.6327 -0.6327 0.4464
vn 0.1092 -0.7140 0.6916
vn 0.0720 -0.5183 0.8522
vn -0.0201 -0.2189 0.9755
vn 0.0791 0.0791 0.9937
vn 0.4920 0.0782 0.8671
vn 0.5622 -0.0783 0.8233
vn 0.3531 -0.3531 0.8664
vn 0.0782 -0.4920 0.8671
vn 0.9871 0.1602 0.0000
vn 0.3282 -0.3282 0.8858
vn 0.3335 -0.0421 0.9418
vn 0.0800 -0.0117 0.9967
vn 0.0595 -0.0595 0.9965
vn -0.0117 -0.0800 0.9967
vn 0.0117 -0.0800 0.9967
vn 0.0421 -0.3335 0.9418
vn 0.2218 -0.2218 0.9496
vn 0.5622 0.0783 0.8233
vn 0.0117 0.0800 0.9967
vn -0.0800 0.0117 0.9967
vn -0.0595 -0.0595 0.9965
vn -0.0421 -0.3335 0.9418
vn 0.0783 -0.5622 0.8233
vn -0.0783 -0.5622 0.8233
vn -0.2218 -0.2218 0.9495
vn -0.0800 -0.0117 0.9967
vn -0.3335 -0.0421 0.9418
vn -0.3335 0.0421 0.9418
vn -0.5622 -0.0783 0.8233
vn -0.5622 0.0783 0.8233
vn -0.4920 -0.0782 0.8671
vn -0.4920 0.0782 0.8671
vn -0.1627 -0.0353 0.9860
vn -0.1627 0.0353 0.9860
vn 0.2189 0.0201 0.9755
vn 0.2189 -0.0201 0.9755
vn 0.5183 0.0720 0.8522
vn -0.3531 -0.3531 0.8664
vn -0.2840 -0.2840 0.9158
vn -0.0782 -0.4920 0.8671
vn 0.0791 -0.0791 0.9937
vn 0.0353 -0.1627 0.9860
vn -0.0353 -0.1627 0.9860
vn -0.0791 -0.0791 0.9937
vn 0.1432 0.1432 0.9793
vn 0.3282 0.3282 0.8858
vn 0.7140 0.1092 0.6916
vn 0.7140 -0.1092 0.6916
vn 0.9008 0.1539 0.4061
vn 0.9008 -0.1539 0.4061
vn 0.9816 0.1659 0.0943
vn 0.4669 -0.4669 0.7510
vn 0.4669 0.4669 0.7510
vn -0.2189 0.0201 0.9755
vn -0.1432 0.1432 0.9793
vn -0.0201 0.2189 0.9755
vn 0.0201 0.2189 0.9755
vn 0.0720 0.5183 0.8522
vn 0.1092 0.7140 0.6916
vn 0.1539 0.9008 0.4061
vn 0.6328 0.6327 0.4464
vn -0.1539 0.9008 0.4061
vn -0.5183 0.0720 0.8522
vn -0.5183 -0.0720 0.8522
vn -0.3282 0.3282 0.8858
vn -0.0720 0.5183 0.8522
vn -0.1092 0.7140 0.6916
vn -0.6327 0.6327 0.4464
vn -0.4669 0.4669 0.7510
vn -0.9008 0.1539 0.4061
vn -0.7140 0.1092 0.6916
vn 0.7027 0.7027 0.1118
vn 0.1659 0.9816 0.0943
vn -0.1659 0.9816 0.0943
vn 0.5183 -0.0720 0.8522
vn 0.7071 0.7071 0.0000
vn 0.1602 0.9871 0.0000
vn -0.1602 0.9871 0.0000
vn -0.0791 0.0791 0.9937
vn -0.2840 0.2840 0.9158
vn -0.0782 0.4920 0.8671
vn 0.1432 -0.1432 0.9793
vn 0.0201 -0.2189 0.9755
vn 0.0353 0.1627 0.9860
vn 0.2840 0.2840 0.9158
vn 0.3531 0.3531 0.8664
vn 0.3335 0.0421 0.9418
vn -0.0353 0.1627 0.9860
vn 0.0782 0.4920 0.8671
vn 0.0783 0.5622 0.8233
vn 0.2218 0.2218 0.9496
vn 0.0800 0.0117 0.9967
vn 0.0595 0.0595 0.9965
vn 0.0421 0.3335 0.9418
vn -0.0421 0.3335 0.9418
vn -0.0783 0.5622 0.8233
vn -0.3531 0.3531 0.8664
vn -0.2218 0.2218 0.9496
vn -0.0117 0.0800 0.9967
vn -0.0595 0.0595 0.9965
usemtl gm_painting
s 1
f 1/1/1 2/2/1 3/3/1
f 2/2/1 4/4/1 3/3/1
f 4/4/1 5/5/1 3/3/1
f 5/5/1 6/6/1 3/3/1
f 5/5/1 7/7/1 6/6/1
f 8/8/1 9/9/1 10/10/1
f 8/8/1 10/10/1 5/5/1
f 4/4/1 8/8/1 5/5/1
f 4/4/1 11/11/1 8/8/1
f 4/4/1 12/12/1 11/11/1
f 13/13/2 14/14/3 15/15/4
f 4/16/5 15/15/4 14/14/3
f 14/14/3 12/17/6 4/16/5
f 11/18/7 12/17/6 14/14/3
f 8/19/8 11/18/7 16/20/9
f 14/14/3 16/20/9 11/18/7
f 17/21/10 16/20/9 14/14/3
f 14/14/3 13/13/2 17/21/10
f 18/22/11 17/21/10 13/13/2
f 13/13/2 19/23/12 18/22/11
f 19/23/12 13/13/2 20/24/13
f 15/15/4 20/24/13 13/13/2
f 20/24/13 15/15/4 21/25/14
f 21/25/14 15/15/4 4/16/5
f 4/16/5 2/26/15 21/25/14
f 22/27/16 23/28/17 10/29/18
f 10/29/18 9/30/19 22/27/16
f 22/27/16 9/30/19 8/19/8
f 8/19/8 24/31/20 22/27/16
f 16/20/9 24/31/20 8/19/8
f 25/32/21 24/31/20 16/20/9
f 16/20/9 17/21/10 25/32/21
f 26/33/22 25/32/21 17/21/10
f 17/21/10 18/22/11 26/33/22
f 26/33/22 18/22/11 27/34/23
f 27/34/23 18/22/11 19/23/12
f 19/23/12 28/35/24 27/34/23
f 29/36/25 27/34/23 28/35/24
f 27/34/23 29/36/25 30/37/26
f 31/38/27 30/37/26 29/36/25
f 30/37/26 31/38/27 32/39/28
f 33/40/29 32/39/28 31/38/27
f 32/39/28 33/40/29 34/41/30
f 2/26/15 1/42/31 35/43/32
f 35/43/32 21/25/14 2/26/15
f 36/44/33 21/25/14 35/43/32
f 21/25/14 36/44/33 20/24/13
f 37/45/34 20/24/13 36/44/33
f 20/24/13 37/45/34 19/23/12
f 19/23/12 37/45/34 38/46/35
f 38/46/35 28/35/24 19/23/12
f 39/47/36 28/35/24 38/46/35
f 28/35/24 39/47/36 29/36/25
f 40/48/37 29/36/25 39/47/36
f 29/36/25 40/48/37 31/38/27
f 41/49/38 31/38/27 40/48/37
f 31/38/27 41/49/38 33/40/29
f 42/50/39 33/40/29 41/49/38
f 34/41/30 33/40/29 42/50/39
f 42/50/39 43/51/40 34/41/30
f 44/52/41 34/41/30 43/51/40
f 35/43/32 1/42/31 3/53/42
f 45/54/43 38/46/35 37/45/34
f 46/55/44 47/56/45 48/57/46
f 49/58/47 48/57/46 47/56/45
f 49/58/47 50/59/48 48/57/46
f 51/60/49 50/59/48 49/58/47
f 50/59/48 51/60/49 52/61/50
f 43/51/40 52/61/50 51/60/49
f 52/61/50 43/51/40 42/50/39
f 42/50/39 46/55/44 52/61/50
f 46/55/44 42/50/39 53/62/51
f 41/49/38 53/62/51 42/50/39
f 52/61/50 48/57/46 50/59/48
f 48/57/46 52/61/50 46/55/44
f 54/63/52 49/58/47 47/56/45
f 54/63/52 55/64/53 49/58/47
f 55/64/53 56/65/54 49/58/47
f 57/66/55 49/58/47 56/65/54
f 49/58/47 57/66/55 51/60/49
f 58/67/56 51/60/49 57/66/55
f 51/60/49 58/67/56 43/51/40
f 43/51/40 58/67/56 44/52/41
f 44/52/41 58/67/56 59/68/57
f 57/66/55 59/68/57 58/67/56
f 59/68/57 57/66/55 60/69/58
f 56/65/54 60/69/58 57/66/55
f 60/69/58 56/65/54 61/70/59
f 55/64/53 61/70/59 56/65/54
f 62/71/60 61/70/59 55/64/53
f 55/64/53 63/72/61 62/71/60
f 64/73/62 62/71/60 63/72/61
f 63/72/61 65/74/63 64/73/62
f 66/75/64 64/73/62 65/74/63
f 65/74/63 67/76/65 66/75/64
f 68/77/66 66/75/64 67/76/65
f 67/76/65 69/78/67 68/77/66
f 70/79/68 68/77/66 69/78/67
f 69/78/67 71/80/69 70/79/68
f 72/81/70 70/79/68 71/80/69
f 60/69/58 73/82/71 59/68/57
f 61/70/59 62/71/60 60/69/58
f 73/82/71 60/69/58 62/71/60
f 62/71/60 64/73/62 73/82/71
f 73/82/71 64/73/62 66/75/64
f 66/75/64 74/83/72 73/82/71
f 59/68/57 73/82/71 74/83/72
f 74/83/72 75/84/73 59/68/57
f 59/68/57 75/84/73 44/52/41
f 34/41/30 76/85/74 32/39/28
f 76/85/74 34/41/30 44/52/41
f 44/52/41 77/86/75 76/85/74
f 77/86/75 44/52/41 75/84/73
f 75/84/73 78/87/76 77/86/75
f 78/87/76 75/84/73 74/83/72
f 74/83/72 79/88/77 78/87/76
f 79/88/77 74/83/72 66/75/64
f 66/75/64 68/77/66 79/88/77
f 80/89/78 79/88/77 68/77/66
f 68/77/66 70/79/68 80/89/78
f 81/90/79 80/89/78 70/79/68
f 70/79/68 72/81/70 81/90/79
f 81/90/79 72/81/70 82/91/80
f 83/92/81 82/91/80 72/81/70
f 84/93/82 82/91/80 83/92/81
f 83/92/81 85/94/83 84/93/82
f 86/95/84 84/93/82 85/94/83
f 85/94/83 83/92/81 87/96/85
f 82/91/80 88/97/86 81/90/79
f 32/39/28 89/98/87 30/37/26
f 89/98/87 32/39/28 76/85/74
f 76/85/74 90/99/88 89/98/87
f 90/99/88 76/85/74 77/86/75
f 77/86/75 91/100/89 90/99/88
f 91/100/89 77/86/75 78/87/76
f 78/87/76 92/101/90 91/100/89
f 92/101/90 78/87/76 79/88/77
f 79/88/77 80/89/78 92/101/90
f 93/102/91 92/101/90 80/89/78
f 80/89/78 81/90/79 93/102/91
f 94/103/92 93/102/91 81/90/79
f 81/90/79 88/97/86 94/103/92
f 95/104/93 94/103/92 88/97/86
f 88/97/86 96/105/94 95/104/93
f 96/105/94 88/97/86 82/91/80
f 82/91/80 84/93/82 96/105/94
f 94/103/92 95/104/93 97/106/95
f 89/98/87 98/107/96 99/108/97
f 98/107/96 89/98/87 90/99/88
f 90/99/88 100/109/98 98/107/96
f 100/109/98 90/99/88 91/100/89
f 91/100/89 101/110/99 100/109/98
f 101/110/99 91/100/89 92/101/90
f 92/101/90 93/102/91 101/110/99
f 101/110/99 93/102/91 94/103/92
f 94/103/92 102/111/100 101/110/99
f 97/106/95 102/111/100 94/103/92
f 102/111/100 97/106/95 103/112/101
f 103/112/101 104/113/102 102/111/100
f 104/113/102 103/112/101 105/114/103
f 105/114/103 106/115/104 104/113/102
f 100/109/98 104/113/102 106/115/104
f 106/115/104 98/107/96 100/109/98
f 99/108/97 98/107/96 106/115/104
f 100/109/98 101/110/99 102/111/100
f 102/111/100 104/113/102 100/109/98
f 84/93/82 86/95/84 107/116/105
f 107/116/105 96/105/94 84/93/82
f 96/105/94 107/116/105 108/117/106
f 108/117/106 95/104/93 96/105/94
f 95/104/93 108/117/106 109/118/107
f 109/118/107 97/106/95 95/104/93
f 97/106/95 109/118/107 23/28/17
f 23/28/17 103/112/101 97/106/95
f 103/112/101 23/28/17 22/27/16
f 22/27/16 105/114/103 103/112/101
f 105/114/103 22/27/16 24/31/20
f 24/31/20 25/32/21 105/114/103
f 106/115/104 105/114/103 25/32/21
f 25/32/21 26/33/22 106/115/104
f 106/115/104 26/33/22 99/108/97
f 27/34/23 99/108/97 26/33/22
f 30/37/26 99/108/97 27/34/23
f 99/108/97 30/37/26 89/98/87
f 71/80/69 110/119/108 72/81/70
f 72/81/70 110/119/108 83/92/81
f 83/92/81 110/119/108 45/54/43
f 45/54/43 87/96/85 83/92/81
f 37/45/34 87/96/85 45/54/43
f 36/44/33 87/96/85 37/45/34
f 87/96/85 36/44/33 85/94/83
f 35/43/32 85/94/83 36/44/33
f 85/94/83 35/43/32 86/95/84
f 3/53/42 86/95/84 35/43/32
f 107/116/105 86/95/84 3/53/42
f 3/53/42 6/120/109 107/116/105
f 108/117/106 107/116/105 6/120/109
f 6/120/109 7/121/110 108/117/106
f 109/118/107 108/117/106 7/121/110
f 7/121/110 5/122/111 109/118/107
f 23/28/17 109/118/107 5/122/111
f 5/122/111 10/29/18 23/28/17
f 111/123/112 112/124/113 113/125/114
f 112/124/113 111/123/112 69/78/67
f 71/80/69 69/78/67 111/123/112
f 111/123/112 114/126/115 71/80/69
f 110/119/108 71/80/69 114/126/115
f 114/126/115 45/54/43 110/119/108
f 45/54/43 114/126/115 115/127/116
f 115/127/116 38/46/35 45/54/43
f 38/46/35 115/127/116 39/47/36
f 116/128/117 39/47/36 115/127/116
f 39/47/36 116/128/117 40/48/37
f 117/129/118 40/48/37 116/128/117
f 40/48/37 117/129/118 41/49/38
f 41/49/38 117/129/118 118/130/119
f 118/130/119 53/62/51 41/49/38
f 119/131/120 53/62/51 118/130/119
f 53/62/51 119/131/120 46/55/44
f 47/56/45 46/55/44 119/131/120
f 120/132/121 115/127/116 114/126/115
f 115/127/116 120/132/121 116/128/117
f 121/133/122 116/128/117 120/132/121
f 116/128/117 121/133/122 117/129/118
f 117/129/118 121/133/122 122/134/123
f 122/134/123 118/130/119 117/129/118
f 123/135/124 118/130/119 122/134/123
f 118/130/119 123/135/124 119/131/120
f 124/136/125 119/131/120 123/135/124
f 119/131/120 124/136/125 47/56/45
f 124/136/125 125/137/126 47/56/45
f 125/137/126 54/63/52 47/56/45
f 126/138/127 54/63/52 125/137/126
f 54/63/52 126/138/127 127/139/128
f 128/140/129 127/139/128 126/138/127
f 127/139/128 128/140/129 129/141/130
f 129/141/130 128/140/129 113/125/114
f 113/125/114 112/124/113 129/141/130
f 123/135/124 125/137/126 124/136/125
f 125/137/126 123/135/124 126/138/127
f 122/134/123 126/138/127 123/135/124
f 126/138/127 122/134/123 128/140/129
f 113/125/114 128/140/129 122/134/123
f 122/134/123 121/133/122 113/125/114
f 120/132/121 113/125/114 121/133/122
f 113/125/114 120/132/121 111/123/112
f 114/126/115 111/123/112 120/132/121
f 69/78/67 67/76/65 112/124/113
f 112/124/113 67/76/65 65/74/63
f 65/74/63 129/141/130 112/124/113
f 130/142/131 129/141/130 65/74/63
f 129/141/130 130/142/131 127/139/128
f 131/143/132 127/139/128 130/142/131
f 127/139/128 131/143/132 54/63/52
f 54/63/52 131/143/132 132/144/133
f 54/63/52 132/144/133 55/64/53
f 63/72/61 55/64/53 132/144/133
f 132/144/133 130/142/131 63/72/61
f 65/74/63 63/72/61 130/142/131
f 130/142/131 132/144/133 131/143/132
